<?xml version="1.0" encoding="UTF-8" standalone="no"?>
<!-- Created with Inkscape (http://www.inkscape.org/) -->

<svg
   width="159.01039mm"
   height="168.77992mm"
   viewBox="0 0 159.01039 168.77992"
   version="1.1"
   id="svg1"
   xml:space="preserve"
   inkscape:version="1.4.2 (f4327f4, 2025-05-13)"
   sodipodi:docname="GGlogo.svg"
   xmlns:inkscape="http://www.inkscape.org/namespaces/inkscape"
   xmlns:sodipodi="http://sodipodi.sourceforge.net/DTD/sodipodi-0.dtd"
   xmlns="http://www.w3.org/2000/svg"
   xmlns:svg="http://www.w3.org/2000/svg"><sodipodi:namedview
     id="namedview1"
     pagecolor="#ffffff"
     bordercolor="#000000"
     borderopacity="0.25"
     inkscape:showpageshadow="2"
     inkscape:pageopacity="0.0"
     inkscape:pagecheckerboard="0"
     inkscape:deskcolor="#d1d1d1"
     inkscape:document-units="mm"
     inkscape:zoom="0.99508277"
     inkscape:cx="297.96516"
     inkscape:cy="320.07388"
     inkscape:window-width="2256"
     inkscape:window-height="1398"
     inkscape:window-x="-11"
     inkscape:window-y="-11"
     inkscape:window-maximized="1"
     inkscape:current-layer="layer1" /><defs
     id="defs1" /><g
     inkscape:label="Layer 1"
     inkscape:groupmode="layer"
     id="layer1"
     transform="translate(-26.103136,-63.832903)"><path
       style="fill:#ffaffe;fill-opacity:1;stroke:#000000;stroke-width:2;stroke-dasharray:none;stroke-opacity:1"
       d="m 123.12706,231.34881 -2.64583,-0.18909 -1.98438,-0.32465 -1.98437,-0.32464 -2.55126,-0.63506 -2.55125,-0.63506 -2.34354,-0.82692 -2.34352,-0.82692 -2.11665,-1.05643 -2.11667,-1.05643 -2.17428,-1.45297 -2.174294,-1.45297 -1.82204,-1.91814 -1.82204,-1.91813 -1.23082,-1.90265 -1.23081,-1.90264 -0.80725,-1.59915 -0.80725,-1.59915 -0.7491,-2.2927 -0.74909,-2.2927 -0.56023,-2.70409 -0.56023,-2.7041 -0.39535,-3.3797 -0.39534,-3.3797 v -2.67518 -2.67517 l 0.27533,-3.41186 0.27534,-3.41186 0.45227,-0.41232 0.45226,-0.41232 1.5875,-0.61915 1.5875,-0.61915 2.64584,-1.24857 2.64583,-1.24856 1.85209,-1.32896 1.852084,-1.32896 2.56078,-2.1327 2.56078,-2.1327 1.76227,-2.06351 1.7623,-2.06352 1.47719,-2.38125 1.47719,-2.38125 1.00919,-2.14805 1.00919,-2.14805 0.80949,-2.47715 0.80949,-2.47714 0.75578,-2.91543 0.75578,-2.91543 0.56108,-3.30729 0.56108,-3.30729 0.39048,-4.6167 0.39047,-4.61671 0.21438,-0.21437 0.21438,-0.21438 2.53754,-0.6437 2.53753,-0.6437 3.7968,-0.60166 3.7968,-0.60166 4.89479,0.0123 4.89479,0.0123 2.64584,0.33047 2.64583,0.33047 3.04271,0.61689 3.0427,0.61688 2.59026,0.83315 2.59026,0.83314 1.77537,0.79571 1.77536,0.7957 2.51355,1.67545 2.51354,1.67545 1.87405,1.9448 1.87406,1.94481 1.32282,2.24896 1.32282,2.24896 0.70133,1.75393 0.70133,1.75393 0.42525,1.68565 0.42525,1.68566 0.14054,5.45788 0.14053,5.45788 -0.56844,0.56844 -0.56844,0.56844 -10.81265,-0.026 -10.81265,-0.026 -1.4832,-0.20127 -1.48321,-0.20128 -0.15451,-0.15451 -0.1545,-0.1545 -0.24355,-1.93961 -0.24354,-1.93961 -0.67665,-1.38301 -0.67664,-1.38301 -1.46601,-1.30664 -1.46601,-1.30663 -1.6438,-0.80924 -1.64379,-0.80923 -1.83499,-0.42946 -1.83498,-0.42946 -3.43959,0.11517 -3.43958,0.11516 -2.21293,0.8284 -2.21294,0.8284 -1.14497,0.67101 -1.14498,0.671 -1.2767,1.25471 -1.27671,1.25472 -1.51041,2.51354 -1.51041,2.51355 -1.09019,2.51354 -1.0902,2.51354 -0.78136,2.97979 -0.78136,2.9798 -0.36892,2.09835 -0.36893,2.09836 -0.31957,4.31456 -0.31956,4.31455 0.30077,3.98608 0.30077,3.98607 0.64804,2.55465 0.64804,2.55465 0.80549,1.68775 0.80549,1.68775 1.72126,1.72126 1.72127,1.72127 1.70773,0.84071 1.70774,0.84072 2.19217,0.55435 2.19218,0.55436 3.04939,-0.12787 3.04938,-0.12786 2.31807,-0.80155 2.31807,-0.80155 1.50712,-0.89039 1.50711,-0.8904 1.774,-1.7536 1.774,-1.7536 1.063,-2.21515 1.063,-2.21515 0.43572,-1.5266 0.43572,-1.5266 -0.1084,-0.3252 -0.1084,-0.32521 -6.46034,0.0641 -6.46033,0.0641 -1.04485,-0.19898 -1.04484,-0.19898 -0.45833,-0.79145 -0.45832,-0.79146 0.1557,-8.30983 0.15571,-8.30983 0.48757,-0.48756 0.48756,-0.48757 h 20.19592 20.19591 l 0.34897,0.65206 0.34897,0.65205 -0.18779,4.0443 -0.1878,4.0443 -0.38536,3.30729 -0.38537,3.30729 -0.40686,2.38125 -0.40687,2.38125 -0.66253,2.71959 -0.66253,2.71959 -1.05635,3.18213 -1.05635,3.18213 -0.92763,2.03578 -0.92763,2.03578 -0.83254,1.32292 -0.83253,1.32292 -1.10184,1.4552 -1.10184,1.45521 -1.66015,1.68037 -1.66015,1.68037 -1.97157,1.56674 -1.97158,1.56673 -2.50279,1.47297 -2.50279,1.47298 -1.97874,0.91423 -1.97874,0.91423 -3.10041,1.03441 -3.1004,1.0344 -3.04271,0.5395 -3.04271,0.53951 -3.70416,0.26394 -3.70417,0.26393 -1.32292,-0.0369 -1.32291,-0.0369 z m -60.854134,-49.91235 -0.79375,-0.0944 -2.10341,-0.28506 -2.10341,-0.28507 -2.05655,-0.51184 -2.05655,-0.51185 -2.32233,-0.81944 -2.32234,-0.81943 -2.11666,-1.06147 -2.11667,-1.06146 -2.3307,-1.59339 -2.330704,-1.59339 -1.96379,-1.83397 -1.96379,-1.83396 -1.32607,-1.76446 -1.32607,-1.76446 -0.89935,-1.71979 -0.89936,-1.71979 -0.98455,-2.64583 -0.98455,-2.64584 -0.624995,-2.9469 -0.62498,-2.94691 -0.44835,-3.40309 -0.44836,-3.4031 -0.0112,-7.40833 -0.0112,-7.40833 0.33888,-2.51354 0.33887,-2.51355 0.50886,-3.0427 0.50886,-3.04271 0.651695,-2.64584 0.65169,-2.64583 0.82259,-2.51354 0.82259,-2.51354 1.20349,-2.77813 1.2035,-2.77812 1.40205,-2.392914 1.40205,-2.39291 1.56897,-2.10501 1.56897,-2.105 2.224754,-2.12142 2.22476,-2.12142 1.94085,-1.28738 1.94085,-1.28738 2.68936,-1.39368 2.68936,-1.39369 2.51354,-0.93128 2.51354,-0.93128 2.64583,-0.666 2.64584,-0.666 2.38125,-0.42621 2.38125,-0.42621 4.10104,-0.15502 4.10104,-0.15501 3.70417,0.32047 3.70416,0.32047 3.04271,0.51428 3.04271,0.51428 2.50075,0.66406 2.50076,0.66405 2.67576,1.13409 2.675774,1.13409 2.36411,1.54084 2.3641,1.54083 1.94708,1.88122 1.94711,1.88121 1.13085,1.5875 1.13086,1.5875 0.99443,1.98438 0.99443,1.98437 0.62079,1.822954 0.62079,1.82295 0.41231,2.1458 0.41231,2.1458 0.15255,3.57188 0.15256,3.57187 -0.5809,0.7276 -0.5809,0.72761 h -11.9783 -11.978334 l -0.4176,-0.46302 -0.41759,-0.46302 -0.41715,-1.80229 -0.41715,-1.80229 -0.70784,-1.505 -0.70784,-1.50501 -1.48487,-1.4552 -1.48487,-1.45521 -1.44532,-0.71342 -1.44533,-0.71342 -2.03936,-0.41106 -2.03937,-0.41106 -1.53251,0.005 -1.53251,0.005 -1.755,0.25389 -1.75501,0.25388 -2.08145,0.66076 -2.08145,0.66076 -1.85209,1.22906 -1.85208,1.22906 -1.41326,1.35678 -1.41327,1.35679 -0.9975,1.4552 -0.99751,1.45521 -0.67609,1.33686 -0.67608,1.33686 -0.95678,2.74874 -0.95677,2.74874 -0.63336,3.19044 -0.63335,3.19045 -0.32192,3.39854 -0.32192,3.39854 0.15765,4.40667 0.15764,4.40666 0.51387,2.38125 0.51387,2.38125 0.5814,1.53556 0.5814,1.53555 1.30547,1.95184 1.30547,1.95183 1.30613,1.17433 1.30612,1.17432 2.09061,1.08765 2.09061,1.08766 1.68962,0.39828 1.68962,0.39829 2.24896,-6.9e-4 2.24895,-6.8e-4 1.8445,-0.39071 1.84449,-0.39072 1.85967,-0.88949 1.85968,-0.8895 1.67298,-1.2657 1.67298,-1.2657 1.01026,-1.3521 1.01026,-1.3521 0.85794,-1.71633 0.85793,-1.71633 0.63051,-1.67509 0.63051,-1.6751 -0.13525,-0.21883 -0.13524,-0.21882 -7.1316,0.14392 -7.1316,0.14393 -0.67516,-0.44238 -0.67515,-0.44238 v -8.82813 -8.82813 l 0.50584,-0.62462 0.50584,-0.62463 19.79769,-0.0434 19.797674,-0.0434 0.8866,0.37044 0.8866,0.37045 -0.17388,4.70005 -0.17388,4.70005 -0.37791,4.16222 -0.3779,4.16222 -0.63424,2.98153 -0.63423,2.98153 -1.08383,3.30729 -1.08382,3.30729 -1.16991,2.58569 -1.16991,2.58568 -1.79678,2.70598 -1.79675,2.70599 -2.12913,2.12445 -2.12911,2.12446 -2.695894,2.02208 -2.69589,2.02208 -3.53344,1.7313 -3.53343,1.7313 -3.16338,1.04876 -3.16339,1.04877 -3.2743,0.54787 -3.27431,0.54788 -6.25069,-0.0396 -6.2507,-0.0396 z m 104.510384,-57.74721 -0.79375,-0.50432 -0.92604,-0.82981 -0.92604,-0.82982 -4.46038,-3.62581 -4.46038,-3.62582 -2.27957,-1.77212 -2.27957,-1.77212 -0.60147,-0.15096 -0.60147,-0.15096 -1.38983,0.69885 -1.38983,0.69885 -3.70417,2.18346 -3.70416,2.18347 -4.56113,2.28191 -4.56112,2.28191 h -1.01515 -1.01515 l -0.64144,-0.68278 -0.64143,-0.68277 v -1.50004 -1.50004 l 0.55205,-1.05833 0.55205,-1.05833 4.14398,-7.67292 4.14397,-7.672924 3.3e-4,-0.50242 3.3e-4,-0.50242 -2.05052,-2.01651 -2.05052,-2.01652 -4.7625,-3.67062 -4.7625,-3.67061 -1.01461,-0.9542 -1.01461,-0.9542 -0.52687,-1.0211 -0.52687,-1.02109 0.31731,-0.76606 0.31731,-0.76606 0.93939,-0.8248 0.93939,-0.82479 1.73999,0.13074 1.73998,0.13073 6.35,1.60499 6.35,1.60498 2.33421,0.4328 2.3342,0.4328 0.53676,-0.35639 0.53675,-0.3564 0.65461,-1.58142 0.6546,-1.58143 1.93304,-4.76251 1.93305,-4.7625 1.06324,-2.29456 1.06325,-2.29457 0.86129,-0.44539 0.86128,-0.44539 0.86372,0.14016 0.86372,0.14016 0.66003,0.43247 0.66004,0.43247 0.42262,0.89062 0.42262,0.89062 0.92881,5.24545 0.92881,5.24547 0.65408,2.72627 0.65408,2.72628 0.30585,0.58101 0.30585,0.58102 0.29112,0.19439 0.29112,0.19439 9.99652,0.004 9.99652,0.004 0.974,0.40696 0.97401,0.40697 0.4727,0.42779 0.47271,0.42779 v 0.91635 0.91636 l -1.66201,1.62232 -1.662,1.62234 -2.85496,1.5875 -2.85495,1.5875 -5.07419,3.04508 -5.07418,3.045084 0.0798,1.00739 0.0798,1.00739 0.80682,2.29753 0.80683,2.29752 1.01251,2.38125 1.01251,2.38125 1.73889,3.66107 1.7389,3.66106 v 0.78125 0.78125 l -0.53003,1.03895 -0.53003,1.03894 -0.51091,0.27343 -0.51091,0.27343 -1.27416,-9.9e-4 -1.27417,-9.9e-4 z"
       id="path1" /></g></svg>
